<?xml version="1.0" encoding="UTF-8"?><svg id="Layer_1" xmlns="http://www.w3.org/2000/svg" viewBox="0 0 164.88 163.39"><metadata><c2pa:manifest xmlns:c2pa="http://c2pa.org/manifest"></c2pa:manifest></metadata><defs><style>.cls-1,.cls-2{fill:#fff;stroke-width:0px;}.cls-2{opacity:.99;}</style></defs><path class="cls-2" d="m153.69,39.69C138.79,13.34,109.32-.93,79.51.05,50.08,1.01,25.41,16.3,10.94,41.81,1.91,57.72-1.07,72.67.33,91c2.59,33.93,30.07,64.04,63.37,70.51,24.5,4.76,49.72.78,69.44-15.05,32.64-26.19,41.21-70.23,20.54-106.77Zm-66.46,115.26c-24.69,1.25-48.55-9.83-62.98-30-17.17-24-17.44-61.57,0-85.46,13.34-18.27,32.84-30.55,55.85-31.35,48.88-1.68,85.37,45.95,71.28,95.2-7.74,27.06-35.93,50.17-64.14,51.6Z"/><path class="cls-1" d="m37.06,112.01s11.57,1.59,16.75-.01c2.74-.84,4.59-3.41,4.6-6.28.17-39,.78-42.28.98-79.41.02-3.61,2.94-6.54,6.55-6.56,9.09-.05,21.81-.55,26.17.11,5.58.85,12.52,5.09,15.71,9.81,7.49,11.05,3.37,30.58-7.84,38.78-2.78,2.03-3.65,5.79-1.85,8.73.78,1.27,1.57,2.54,2.31,3.84,4.31,7.46,25.69,42.98,26.99,46.92.18.56.29,1.19.63,1.69.11.44-.43.29-.42.32l-15.16-.08c-2.36-.01-4.53-1.29-5.7-3.34l-27.62-48.73c-.56-.99-.86-2.11-.86-3.25v-11.13c0-3.49,2.65-6.42,6.13-6.76l.94-.09c9.77-1.05,11.87-13.94,5.44-19.66-1.2-1.07-2.77-1.63-4.38-1.62-1.36.01-3.29.03-5.19.04-3.61.03-6.53,2.96-6.54,6.57l-.19,64.78c0,.4-.03.79-.1,1.19-1.01,5.51-3.13,10.98-6.86,15.23-8.78,10.01-30.18,6.2-30.18,6.2"/></svg>